<svg xmlns="http://www.w3.org/2000/svg" viewBox="0 0 2300 1700" width="2300" height="1700" font-family="Segoe UI, Roboto, Helvetica, Arial, sans-serif">
<defs><pattern id="lawn" width="14" height="14" patternUnits="userSpaceOnUse"><rect width="14" height="14" fill="#d9e4c4"/><circle cx="4" cy="5" r="1" fill="#c8d6ae"/><circle cx="10" cy="11" r="1" fill="#c8d6ae"/></pattern><pattern id="tiles" width="24" height="24" patternUnits="userSpaceOnUse"><rect width="24" height="24" fill="#ece4d2"/><path d="M24 0 V24 M0 24 H24" stroke="#e0d6c0" stroke-width="1"/></pattern><pattern id="pitch" width="80" height="80" patternUnits="userSpaceOnUse"><rect width="80" height="80" fill="#7fb06a"/><rect width="40" height="80" fill="#88b972"/></pattern><pattern id="road" width="60" height="30" patternUnits="userSpaceOnUse"><rect width="60" height="30" fill="#8d8b88"/><rect x="10" y="14" width="26" height="2" fill="#e8e3d8"/></pattern></defs>
<rect x="0" y="0" width="2300" height="1700" fill="url(#lawn)"/>
<rect x="0" y="1455" width="2300" height="110" fill="url(#road)"/>
<rect x="1360" y="1425" width="300" height="30" fill="#e8e2d3"/>
<rect x="905" y="1023" width="845" height="44" fill="#e8e2d3" stroke="#cfc7b6" stroke-width="1"/>
<rect x="1492" y="1045" width="36" height="195" fill="#e8e2d3" stroke="#cfc7b6" stroke-width="1"/>
<rect x="1492" y="690" width="36" height="355" fill="#e8e2d3" stroke="#cfc7b6" stroke-width="1"/>
<rect x="290" y="962" width="445" height="36" fill="#e8e2d3" stroke="#cfc7b6" stroke-width="1"/>
<rect x="490" y="780" width="30" height="200" fill="#e8e2d3" stroke="#cfc7b6" stroke-width="1"/>
<rect x="665" y="980" width="30" height="320" fill="#e8e2d3" stroke="#cfc7b6" stroke-width="1"/>
<line x1="656" y1="400" x2="1055" y2="330" stroke="#e8e2d3" stroke-width="30" stroke-linecap="round"/>
<line x1="656" y1="400" x2="1055" y2="330" stroke="#cfc7b6" stroke-width="32" stroke-linecap="round" opacity="0.35"/>
<rect x="320" y="150" width="320" height="630" rx="160" fill="#c98a62" stroke="#8f5a3a" stroke-width="2"/>
<rect x="332" y="162" width="296" height="606" rx="148" fill="none" stroke="#f1e3d6" stroke-width="1"/>
<rect x="344" y="174" width="272" height="582" rx="136" fill="none" stroke="#f1e3d6" stroke-width="1"/>
<rect x="366" y="230" width="228" height="470" fill="url(#pitch)" stroke="#ffffff" stroke-width="2.5"/>
<line x1="366" y1="465" x2="594" y2="465" stroke="#fff" stroke-width="2"/>
<circle cx="480" cy="465" r="34" fill="none" stroke="#fff" stroke-width="2"/>
<circle cx="480" cy="465" r="3" fill="#fff"/>
<rect x="410" y="230" width="140" height="70" fill="none" stroke="#fff" stroke-width="2"/>
<rect x="410" y="630" width="140" height="70" fill="none" stroke="#fff" stroke-width="2"/>
<rect x="446" y="230" width="68" height="28" fill="none" stroke="#fff" stroke-width="2"/>
<rect x="446" y="672" width="68" height="28" fill="none" stroke="#fff" stroke-width="2"/>
<rect x="456" y="220" width="48" height="10" fill="#fff" stroke="#888" stroke-width="1"/>
<rect x="456" y="700" width="48" height="10" fill="#fff" stroke="#888" stroke-width="1"/>
<rect x="489" y="774" width="32" height="12" fill="#c98a62"/>
<rect x="634" y="384" width="12" height="32" fill="#c98a62"/>
<rect x="1150" y="160" width="980" height="530" fill="#f4efe3" stroke="#3d3934" stroke-width="3"/>
<rect x="1160" y="170" width="960" height="6" fill="#b9c4c9"/>
<circle cx="1270" cy="270" r="30" fill="#e6d9bf" stroke="#a98756" stroke-width="1"/>
<circle cx="1314" cy="270" r="5" fill="#8d8a83"/>
<circle cx="1292" cy="308.1" r="5" fill="#8d8a83"/>
<circle cx="1248" cy="308.1" r="5" fill="#8d8a83"/>
<circle cx="1226" cy="270" r="5" fill="#8d8a83"/>
<circle cx="1248" cy="231.9" r="5" fill="#8d8a83"/>
<circle cx="1292" cy="231.9" r="5" fill="#8d8a83"/>
<circle cx="1395" cy="270" r="30" fill="#e6d9bf" stroke="#a98756" stroke-width="1"/>
<circle cx="1439" cy="270" r="5" fill="#8d8a83"/>
<circle cx="1417" cy="308.1" r="5" fill="#8d8a83"/>
<circle cx="1373" cy="308.1" r="5" fill="#8d8a83"/>
<circle cx="1351" cy="270" r="5" fill="#8d8a83"/>
<circle cx="1373" cy="231.9" r="5" fill="#8d8a83"/>
<circle cx="1417" cy="231.9" r="5" fill="#8d8a83"/>
<circle cx="1520" cy="270" r="30" fill="#e6d9bf" stroke="#a98756" stroke-width="1"/>
<circle cx="1564" cy="270" r="5" fill="#8d8a83"/>
<circle cx="1542" cy="308.1" r="5" fill="#8d8a83"/>
<circle cx="1498" cy="308.1" r="5" fill="#8d8a83"/>
<circle cx="1476" cy="270" r="5" fill="#8d8a83"/>
<circle cx="1498" cy="231.9" r="5" fill="#8d8a83"/>
<circle cx="1542" cy="231.9" r="5" fill="#8d8a83"/>
<circle cx="1645" cy="270" r="30" fill="#e6d9bf" stroke="#a98756" stroke-width="1"/>
<circle cx="1689" cy="270" r="5" fill="#8d8a83"/>
<circle cx="1667" cy="308.1" r="5" fill="#8d8a83"/>
<circle cx="1623" cy="308.1" r="5" fill="#8d8a83"/>
<circle cx="1601" cy="270" r="5" fill="#8d8a83"/>
<circle cx="1623" cy="231.9" r="5" fill="#8d8a83"/>
<circle cx="1667" cy="231.9" r="5" fill="#8d8a83"/>
<circle cx="1770" cy="270" r="30" fill="#e6d9bf" stroke="#a98756" stroke-width="1"/>
<circle cx="1814" cy="270" r="5" fill="#8d8a83"/>
<circle cx="1792" cy="308.1" r="5" fill="#8d8a83"/>
<circle cx="1748" cy="308.1" r="5" fill="#8d8a83"/>
<circle cx="1726" cy="270" r="5" fill="#8d8a83"/>
<circle cx="1748" cy="231.9" r="5" fill="#8d8a83"/>
<circle cx="1792" cy="231.9" r="5" fill="#8d8a83"/>
<circle cx="1895" cy="270" r="30" fill="#e6d9bf" stroke="#a98756" stroke-width="1"/>
<circle cx="1939" cy="270" r="5" fill="#8d8a83"/>
<circle cx="1917" cy="308.1" r="5" fill="#8d8a83"/>
<circle cx="1873" cy="308.1" r="5" fill="#8d8a83"/>
<circle cx="1851" cy="270" r="5" fill="#8d8a83"/>
<circle cx="1873" cy="231.9" r="5" fill="#8d8a83"/>
<circle cx="1917" cy="231.9" r="5" fill="#8d8a83"/>
<circle cx="2020" cy="270" r="30" fill="#e6d9bf" stroke="#a98756" stroke-width="1"/>
<circle cx="2064" cy="270" r="5" fill="#8d8a83"/>
<circle cx="2042" cy="308.1" r="5" fill="#8d8a83"/>
<circle cx="1998" cy="308.1" r="5" fill="#8d8a83"/>
<circle cx="1976" cy="270" r="5" fill="#8d8a83"/>
<circle cx="1998" cy="231.9" r="5" fill="#8d8a83"/>
<circle cx="2042" cy="231.9" r="5" fill="#8d8a83"/>
<circle cx="1270" cy="410" r="30" fill="#e6d9bf" stroke="#a98756" stroke-width="1"/>
<circle cx="1314" cy="410" r="5" fill="#8d8a83"/>
<circle cx="1292" cy="448.1" r="5" fill="#8d8a83"/>
<circle cx="1248" cy="448.1" r="5" fill="#8d8a83"/>
<circle cx="1226" cy="410" r="5" fill="#8d8a83"/>
<circle cx="1248" cy="371.9" r="5" fill="#8d8a83"/>
<circle cx="1292" cy="371.9" r="5" fill="#8d8a83"/>
<circle cx="1395" cy="410" r="30" fill="#e6d9bf" stroke="#a98756" stroke-width="1"/>
<circle cx="1439" cy="410" r="5" fill="#8d8a83"/>
<circle cx="1417" cy="448.1" r="5" fill="#8d8a83"/>
<circle cx="1373" cy="448.1" r="5" fill="#8d8a83"/>
<circle cx="1351" cy="410" r="5" fill="#8d8a83"/>
<circle cx="1373" cy="371.9" r="5" fill="#8d8a83"/>
<circle cx="1417" cy="371.9" r="5" fill="#8d8a83"/>
<circle cx="1520" cy="410" r="30" fill="#e6d9bf" stroke="#a98756" stroke-width="1"/>
<circle cx="1564" cy="410" r="5" fill="#8d8a83"/>
<circle cx="1542" cy="448.1" r="5" fill="#8d8a83"/>
<circle cx="1498" cy="448.1" r="5" fill="#8d8a83"/>
<circle cx="1476" cy="410" r="5" fill="#8d8a83"/>
<circle cx="1498" cy="371.9" r="5" fill="#8d8a83"/>
<circle cx="1542" cy="371.9" r="5" fill="#8d8a83"/>
<circle cx="1645" cy="410" r="30" fill="#e6d9bf" stroke="#a98756" stroke-width="1"/>
<circle cx="1689" cy="410" r="5" fill="#8d8a83"/>
<circle cx="1667" cy="448.1" r="5" fill="#8d8a83"/>
<circle cx="1623" cy="448.1" r="5" fill="#8d8a83"/>
<circle cx="1601" cy="410" r="5" fill="#8d8a83"/>
<circle cx="1623" cy="371.9" r="5" fill="#8d8a83"/>
<circle cx="1667" cy="371.9" r="5" fill="#8d8a83"/>
<circle cx="1770" cy="410" r="30" fill="#e6d9bf" stroke="#a98756" stroke-width="1"/>
<circle cx="1814" cy="410" r="5" fill="#8d8a83"/>
<circle cx="1792" cy="448.1" r="5" fill="#8d8a83"/>
<circle cx="1748" cy="448.1" r="5" fill="#8d8a83"/>
<circle cx="1726" cy="410" r="5" fill="#8d8a83"/>
<circle cx="1748" cy="371.9" r="5" fill="#8d8a83"/>
<circle cx="1792" cy="371.9" r="5" fill="#8d8a83"/>
<circle cx="1895" cy="410" r="30" fill="#e6d9bf" stroke="#a98756" stroke-width="1"/>
<circle cx="1939" cy="410" r="5" fill="#8d8a83"/>
<circle cx="1917" cy="448.1" r="5" fill="#8d8a83"/>
<circle cx="1873" cy="448.1" r="5" fill="#8d8a83"/>
<circle cx="1851" cy="410" r="5" fill="#8d8a83"/>
<circle cx="1873" cy="371.9" r="5" fill="#8d8a83"/>
<circle cx="1917" cy="371.9" r="5" fill="#8d8a83"/>
<circle cx="2020" cy="410" r="30" fill="#e6d9bf" stroke="#a98756" stroke-width="1"/>
<circle cx="2064" cy="410" r="5" fill="#8d8a83"/>
<circle cx="2042" cy="448.1" r="5" fill="#8d8a83"/>
<circle cx="1998" cy="448.1" r="5" fill="#8d8a83"/>
<circle cx="1976" cy="410" r="5" fill="#8d8a83"/>
<circle cx="1998" cy="371.9" r="5" fill="#8d8a83"/>
<circle cx="2042" cy="371.9" r="5" fill="#8d8a83"/>
<circle cx="1270" cy="550" r="30" fill="#e6d9bf" stroke="#a98756" stroke-width="1"/>
<circle cx="1314" cy="550" r="5" fill="#8d8a83"/>
<circle cx="1292" cy="588.1" r="5" fill="#8d8a83"/>
<circle cx="1248" cy="588.1" r="5" fill="#8d8a83"/>
<circle cx="1226" cy="550" r="5" fill="#8d8a83"/>
<circle cx="1248" cy="511.9" r="5" fill="#8d8a83"/>
<circle cx="1292" cy="511.9" r="5" fill="#8d8a83"/>
<circle cx="1395" cy="550" r="30" fill="#e6d9bf" stroke="#a98756" stroke-width="1"/>
<circle cx="1439" cy="550" r="5" fill="#8d8a83"/>
<circle cx="1417" cy="588.1" r="5" fill="#8d8a83"/>
<circle cx="1373" cy="588.1" r="5" fill="#8d8a83"/>
<circle cx="1351" cy="550" r="5" fill="#8d8a83"/>
<circle cx="1373" cy="511.9" r="5" fill="#8d8a83"/>
<circle cx="1417" cy="511.9" r="5" fill="#8d8a83"/>
<circle cx="1520" cy="550" r="30" fill="#e6d9bf" stroke="#a98756" stroke-width="1"/>
<circle cx="1564" cy="550" r="5" fill="#8d8a83"/>
<circle cx="1542" cy="588.1" r="5" fill="#8d8a83"/>
<circle cx="1498" cy="588.1" r="5" fill="#8d8a83"/>
<circle cx="1476" cy="550" r="5" fill="#8d8a83"/>
<circle cx="1498" cy="511.9" r="5" fill="#8d8a83"/>
<circle cx="1542" cy="511.9" r="5" fill="#8d8a83"/>
<circle cx="1645" cy="550" r="30" fill="#e6d9bf" stroke="#a98756" stroke-width="1"/>
<circle cx="1689" cy="550" r="5" fill="#8d8a83"/>
<circle cx="1667" cy="588.1" r="5" fill="#8d8a83"/>
<circle cx="1623" cy="588.1" r="5" fill="#8d8a83"/>
<circle cx="1601" cy="550" r="5" fill="#8d8a83"/>
<circle cx="1623" cy="511.9" r="5" fill="#8d8a83"/>
<circle cx="1667" cy="511.9" r="5" fill="#8d8a83"/>
<circle cx="1770" cy="550" r="30" fill="#e6d9bf" stroke="#a98756" stroke-width="1"/>
<circle cx="1814" cy="550" r="5" fill="#8d8a83"/>
<circle cx="1792" cy="588.1" r="5" fill="#8d8a83"/>
<circle cx="1748" cy="588.1" r="5" fill="#8d8a83"/>
<circle cx="1726" cy="550" r="5" fill="#8d8a83"/>
<circle cx="1748" cy="511.9" r="5" fill="#8d8a83"/>
<circle cx="1792" cy="511.9" r="5" fill="#8d8a83"/>
<circle cx="1895" cy="550" r="30" fill="#e6d9bf" stroke="#a98756" stroke-width="1"/>
<circle cx="1939" cy="550" r="5" fill="#8d8a83"/>
<circle cx="1917" cy="588.1" r="5" fill="#8d8a83"/>
<circle cx="1873" cy="588.1" r="5" fill="#8d8a83"/>
<circle cx="1851" cy="550" r="5" fill="#8d8a83"/>
<circle cx="1873" cy="511.9" r="5" fill="#8d8a83"/>
<circle cx="1917" cy="511.9" r="5" fill="#8d8a83"/>
<circle cx="2020" cy="550" r="30" fill="#e6d9bf" stroke="#a98756" stroke-width="1"/>
<circle cx="2064" cy="550" r="5" fill="#8d8a83"/>
<circle cx="2042" cy="588.1" r="5" fill="#8d8a83"/>
<circle cx="1998" cy="588.1" r="5" fill="#8d8a83"/>
<circle cx="1976" cy="550" r="5" fill="#8d8a83"/>
<circle cx="1998" cy="511.9" r="5" fill="#8d8a83"/>
<circle cx="2042" cy="511.9" r="5" fill="#8d8a83"/>
<rect x="2003" y="193" width="104" height="4" fill="#a98756"/>
<rect x="2003" y="203" width="104" height="4" fill="#a98756"/>
<rect x="2003" y="213" width="104" height="4" fill="#a98756"/>
<rect x="2003" y="223" width="104" height="4" fill="#a98756"/>
<rect x="2003" y="233" width="104" height="4" fill="#a98756"/>
<rect x="2003" y="243" width="104" height="4" fill="#a98756"/>
<rect x="2003" y="253" width="104" height="4" fill="#a98756"/>
<rect x="2003" y="263" width="104" height="4" fill="#a98756"/>
<rect x="2003" y="273" width="104" height="4" fill="#a98756"/>
<rect x="2003" y="283" width="104" height="4" fill="#a98756"/>
<rect x="2003" y="293" width="104" height="4" fill="#a98756"/>
<rect x="2003" y="303" width="104" height="4" fill="#a98756"/>
<rect x="2003" y="313" width="104" height="4" fill="#a98756"/>
<rect x="2003" y="323" width="104" height="4" fill="#a98756"/>
<rect x="2003" y="333" width="104" height="4" fill="#a98756"/>
<rect x="2003" y="343" width="104" height="4" fill="#a98756"/>
<rect x="2003" y="353" width="104" height="4" fill="#a98756"/>
<rect x="2003" y="363" width="104" height="4" fill="#a98756"/>
<rect x="2003" y="373" width="104" height="4" fill="#a98756"/>
<rect x="1980" y="410" width="130" height="130" rx="20" fill="#d9e4f0" stroke="#9db3cc" stroke-width="1"/>
<rect x="1190" y="630" width="60" height="30" rx="4" fill="#e5dbc4" stroke="#a98756" stroke-width="1"/>
<rect x="1190" y="630" width="60" height="30" rx="4" fill="#e5dbc4" stroke="#a98756" stroke-width="1"/>
<rect x="1190" y="630" width="60" height="30" rx="4" fill="#e5dbc4" stroke="#a98756" stroke-width="1"/>
<rect x="1190" y="630" width="60" height="30" rx="4" fill="#e5dbc4" stroke="#a98756" stroke-width="1"/>
<line x1="1503" y1="690" x2="1517" y2="690" stroke="#ece4d2" stroke-width="4"/>
<path d="M1503 690 v-14 a14 14 0 0 1 14 14" fill="none" stroke="#3d3934" stroke-width="1"/>
<rect x="735" y="900" width="170" height="160" fill="#f4efe3" stroke="#3d3934" stroke-width="3"/>
<rect x="845" y="940" width="30" height="80" rx="6" fill="#cfd7dc" stroke="#8e9aa3" stroke-width="1"/>
<circle cx="830" cy="980" r="6" fill="#8d8a83"/>
<circle cx="765" cy="945" r="6" fill="#8d8a83"/>
<circle cx="765" cy="975" r="6" fill="#8d8a83"/>
<circle cx="765" cy="1005" r="6" fill="#8d8a83"/>
<circle cx="755" cy="1040" r="4" fill="#8e7b5c"/>
<circle cx="755" cy="1040" r="3" fill="#5f8a44"/>
<line x1="905" y1="1013" x2="905" y2="1027" stroke="#ece4d2" stroke-width="4"/>
<path d="M905 1013 h-14 a14 14 0 0 0 14 14" fill="none" stroke="#3d3934" stroke-width="1"/>
<rect x="80" y="920" width="210" height="230" fill="#f4efe3" stroke="#3d3934" stroke-width="3"/>
<rect x="105" y="950" width="110" height="60" rx="6" fill="#eef2f5" stroke="#8e9aa3" stroke-width="1"/>
<rect x="110" y="958" width="24" height="44" rx="6" fill="#fff" stroke="#b8c2ca" stroke-width="1"/>
<rect x="105" y="1040" width="110" height="60" rx="6" fill="#eef2f5" stroke="#8e9aa3" stroke-width="1"/>
<rect x="110" y="1048" width="24" height="44" rx="6" fill="#fff" stroke="#b8c2ca" stroke-width="1"/>
<rect x="240" y="950" width="30" height="150" fill="#cfd7dc" stroke="#8e9aa3" stroke-width="1"/>
<rect x="266" y="928" width="16" height="16" fill="#fff" stroke="#c0392b" stroke-width="1"/>
<rect x="271" y="933" width="6" height="6" fill="#c0392b"/>
<rect x="269" y="935" width="10" height="2" fill="#c0392b"/>
<rect x="273" y="931" width="2" height="10" fill="#c0392b"/>
<line x1="290" y1="982" x2="290" y2="996" stroke="#ece4d2" stroke-width="4"/>
<path d="M290 982 h-14 a14 14 0 0 0 14 14" fill="none" stroke="#3d3934" stroke-width="1"/>
<rect x="1400" y="1385" width="50" height="40" fill="#f4efe3" stroke="#3d3934" stroke-width="2"/>
<circle cx="1460" cy="1425" r="6" fill="#3d3934"/>
<circle cx="1560" cy="1425" r="6" fill="#3d3934"/>
<line x1="1460" y1="1425" x2="1504" y2="1425" stroke="#3d3934" stroke-width="3"/>
<line x1="1560" y1="1425" x2="1516" y2="1425" stroke="#3d3934" stroke-width="3"/>
<path d="M1460 1425 a44 44 0 0 1 44 -44" fill="none" stroke="#3d3934" stroke-width="1"/>
<line x1="1360" y1="1425" x2="1460" y2="1425" stroke="#3d3934" stroke-width="4"/>
<line x1="1560" y1="1425" x2="1660" y2="1425" stroke="#3d3934" stroke-width="4"/>
<rect x="1000" y="250" width="110" height="80" fill="#f4efe3" stroke="#3d3934" stroke-width="2.5"/>
<line x1="1018.3" y1="252" x2="1018.3" y2="328" stroke="#3d3934" stroke-width="1"/>
<line x1="1036.7" y1="252" x2="1036.7" y2="328" stroke="#3d3934" stroke-width="1"/>
<line x1="1055" y1="252" x2="1055" y2="328" stroke="#3d3934" stroke-width="1"/>
<line x1="1073.3" y1="252" x2="1073.3" y2="328" stroke="#3d3934" stroke-width="1"/>
<line x1="1091.7" y1="252" x2="1091.7" y2="328" stroke="#3d3934" stroke-width="1"/>
<path d="M1005 290 H1103 m-4 -3 l4 3 l-4 3" fill="none" stroke="#7a5a2a" stroke-width="1.4"/>
<rect x="600" y="1300" width="90" height="130" fill="#f4efe3" stroke="#3d3934" stroke-width="2.5"/>
<line x1="602" y1="1321.7" x2="688" y2="1321.7" stroke="#3d3934" stroke-width="1"/>
<line x1="602" y1="1343.3" x2="688" y2="1343.3" stroke="#3d3934" stroke-width="1"/>
<line x1="602" y1="1365" x2="688" y2="1365" stroke="#3d3934" stroke-width="1"/>
<line x1="602" y1="1386.7" x2="688" y2="1386.7" stroke="#3d3934" stroke-width="1"/>
<line x1="602" y1="1408.3" x2="688" y2="1408.3" stroke="#3d3934" stroke-width="1"/>
<path d="M645 1425 V1307 m-3 4 l3 -4 l3 4" fill="none" stroke="#7a5a2a" stroke-width="1.4"/>
<rect x="1000" y="1005" width="40" height="4" fill="#c9a97a" stroke="#a98756" stroke-width="0.5"/>
<rect x="1200" y="1073" width="40" height="4" fill="#c9a97a" stroke="#a98756" stroke-width="0.5"/>
<rect x="1650" y="1005" width="40" height="4" fill="#c9a97a" stroke="#a98756" stroke-width="0.5"/>
<rect x="400" y="944" width="40" height="4" fill="#c9a97a" stroke="#a98756" stroke-width="0.5"/>
<circle cx="950" cy="1011" r="4" fill="#8e7b5c"/>
<circle cx="950" cy="1011" r="3" fill="#5f8a44"/>
<circle cx="1560" cy="1075" r="4" fill="#8e7b5c"/>
<circle cx="1560" cy="1075" r="3" fill="#5f8a44"/>
<circle cx="1540" cy="1210" r="4" fill="#8e7b5c"/>
<circle cx="1540" cy="1210" r="3" fill="#5f8a44"/>
<circle cx="151.5" cy="201.5" r="14" fill="rgba(0,0,0,.12)"/>
<circle cx="150" cy="200" r="14" fill="#8fb26e"/>
<circle cx="145.8" cy="195.8" r="7.700000000000001" fill="#5f8a44" opacity="0.55"/>
<circle cx="221.5" cy="501.5" r="14" fill="rgba(0,0,0,.12)"/>
<circle cx="220" cy="500" r="14" fill="#8fb26e"/>
<circle cx="215.8" cy="495.8" r="7.700000000000001" fill="#5f8a44" opacity="0.55"/>
<circle cx="161.5" cy="761.5" r="14" fill="rgba(0,0,0,.12)"/>
<circle cx="160" cy="760" r="14" fill="#8fb26e"/>
<circle cx="155.8" cy="755.8" r="7.700000000000001" fill="#5f8a44" opacity="0.55"/>
<circle cx="801.5" cy="121.5" r="14" fill="rgba(0,0,0,.12)"/>
<circle cx="800" cy="120" r="14" fill="#8fb26e"/>
<circle cx="795.8" cy="115.8" r="7.700000000000001" fill="#5f8a44" opacity="0.55"/>
<circle cx="901.5" cy="621.5" r="14" fill="rgba(0,0,0,.12)"/>
<circle cx="900" cy="620" r="14" fill="#8fb26e"/>
<circle cx="895.8" cy="615.8" r="7.700000000000001" fill="#5f8a44" opacity="0.55"/>
<circle cx="1001.5" cy="801.5" r="14" fill="rgba(0,0,0,.12)"/>
<circle cx="1000" cy="800" r="14" fill="#8fb26e"/>
<circle cx="995.8" cy="795.8" r="7.700000000000001" fill="#5f8a44" opacity="0.55"/>
<circle cx="1251.5" cy="901.5" r="14" fill="rgba(0,0,0,.12)"/>
<circle cx="1250" cy="900" r="14" fill="#8fb26e"/>
<circle cx="1245.8" cy="895.8" r="7.700000000000001" fill="#5f8a44" opacity="0.55"/>
<circle cx="1801.5" cy="851.5" r="14" fill="rgba(0,0,0,.12)"/>
<circle cx="1800" cy="850" r="14" fill="#8fb26e"/>
<circle cx="1795.8" cy="845.8" r="7.700000000000001" fill="#5f8a44" opacity="0.55"/>
<circle cx="2001.5" cy="901.5" r="14" fill="rgba(0,0,0,.12)"/>
<circle cx="2000" cy="900" r="14" fill="#8fb26e"/>
<circle cx="1995.8" cy="895.8" r="7.700000000000001" fill="#5f8a44" opacity="0.55"/>
<circle cx="2201.5" cy="1101.5" r="14" fill="rgba(0,0,0,.12)"/>
<circle cx="2200" cy="1100" r="14" fill="#8fb26e"/>
<circle cx="2195.8" cy="1095.8" r="7.700000000000001" fill="#5f8a44" opacity="0.55"/>
<circle cx="1001.5" cy="1251.5" r="14" fill="rgba(0,0,0,.12)"/>
<circle cx="1000" cy="1250" r="14" fill="#8fb26e"/>
<circle cx="995.8" cy="1245.8" r="7.700000000000001" fill="#5f8a44" opacity="0.55"/>
<circle cx="1201.5" cy="1401.5" r="14" fill="rgba(0,0,0,.12)"/>
<circle cx="1200" cy="1400" r="14" fill="#8fb26e"/>
<circle cx="1195.8" cy="1395.8" r="7.700000000000001" fill="#5f8a44" opacity="0.55"/>
<circle cx="301.5" cy="1301.5" r="14" fill="rgba(0,0,0,.12)"/>
<circle cx="300" cy="1300" r="14" fill="#8fb26e"/>
<circle cx="295.8" cy="1295.8" r="7.700000000000001" fill="#5f8a44" opacity="0.55"/>
<circle cx="401.5" cy="1551.5" r="14" fill="rgba(0,0,0,.12)"/>
<circle cx="400" cy="1550" r="14" fill="#8fb26e"/>
<circle cx="395.8" cy="1545.8" r="7.700000000000001" fill="#5f8a44" opacity="0.55"/>
<circle cx="901.5" cy="1501.5" r="14" fill="rgba(0,0,0,.12)"/>
<circle cx="900" cy="1500" r="14" fill="#8fb26e"/>
<circle cx="895.8" cy="1495.8" r="7.700000000000001" fill="#5f8a44" opacity="0.55"/>
<circle cx="1801.5" cy="1401.5" r="14" fill="rgba(0,0,0,.12)"/>
<circle cx="1800" cy="1400" r="14" fill="#8fb26e"/>
<circle cx="1795.8" cy="1395.8" r="7.700000000000001" fill="#5f8a44" opacity="0.55"/>
<circle cx="2101.5" cy="1501.5" r="14" fill="rgba(0,0,0,.12)"/>
<circle cx="2100" cy="1500" r="14" fill="#8fb26e"/>
<circle cx="2095.8" cy="1495.8" r="7.700000000000001" fill="#5f8a44" opacity="0.55"/>
<circle cx="2201.5" cy="301.5" r="14" fill="rgba(0,0,0,.12)"/>
<circle cx="2200" cy="300" r="14" fill="#8fb26e"/>
<circle cx="2195.8" cy="295.8" r="7.700000000000001" fill="#5f8a44" opacity="0.55"/>
<circle cx="2221.5" cy="701.5" r="14" fill="rgba(0,0,0,.12)"/>
<circle cx="2220" cy="700" r="14" fill="#8fb26e"/>
<circle cx="2215.8" cy="695.8" r="7.700000000000001" fill="#5f8a44" opacity="0.55"/>
<text x="480" y="525" font-size="16" font-weight="700" text-anchor="middle" dominant-baseline="middle" fill="#2b2a27" paint-order="stroke" stroke="#7fb06a" stroke-width="3" stroke-linejoin="round"><tspan x="480">Football Field</tspan></text>
<text x="1640" y="650" font-size="18" font-weight="700" text-anchor="middle" dominant-baseline="middle" fill="#2b2a27" paint-order="stroke" stroke="#f4efe3" stroke-width="3" stroke-linejoin="round"><tspan x="1640">EYP Atelier</tspan></text>
<text x="820" y="1040" font-size="13" font-weight="700" text-anchor="middle" dominant-baseline="middle" fill="#2b2a27" paint-order="stroke" stroke="#f4efe3" stroke-width="3" stroke-linejoin="round"><tspan x="820">Reception</tspan></text>
<text x="185" y="1132" font-size="13" font-weight="700" text-anchor="middle" dominant-baseline="middle" fill="#2b2a27" paint-order="stroke" stroke="#f4efe3" stroke-width="3" stroke-linejoin="round"><tspan x="185">Infirmary</tspan></text>
<text x="1510" y="1475" font-size="14" font-weight="700" text-anchor="middle" dominant-baseline="middle" fill="#2b2a27" paint-order="stroke" stroke="#e8e2d3" stroke-width="3" stroke-linejoin="round"><tspan x="1510">Main Gate</tspan></text>
<text x="1055" y="236" font-size="11" font-weight="700" text-anchor="middle" dominant-baseline="middle" fill="#2b2a27" paint-order="stroke" stroke="#d9e4c4" stroke-width="3" stroke-linejoin="round"><tspan x="1055">Cafeteria Stairs</tspan></text>
<text x="1055" y="344" font-size="9" font-weight="600" text-anchor="middle" dominant-baseline="middle" fill="#2b2a27" paint-order="stroke" stroke="#d9e4c4" stroke-width="3" stroke-linejoin="round"><tspan x="1055">up to the Cafeteria</tspan></text>
<text x="645" y="1446" font-size="11" font-weight="700" text-anchor="middle" dominant-baseline="middle" fill="#2b2a27" paint-order="stroke" stroke="#d9e4c4" stroke-width="3" stroke-linejoin="round"><tspan x="645">First Floor Stairs</tspan></text>
<text x="16" y="26" font-size="16" font-weight="700" fill="#2b2a27">School - Ground Floor</text>
<line x1="16" y1="44" x2="116" y2="44" stroke="#2b2a27" stroke-width="2"/>
<line x1="16" y1="40" x2="16" y2="48" stroke="#2b2a27" stroke-width="2"/>
<line x1="116" y1="40" x2="116" y2="48" stroke="#2b2a27" stroke-width="2"/>
<text x="66" y="58" font-size="10" text-anchor="middle" fill="#2b2a27">10 m</text>
</svg>
